<svg xmlns="http://www.w3.org/2000/svg" width="1600" height="900" viewBox="0 0 1600 900">
  <defs><linearGradient id="hbg" x1="0%" y1="0%" x2="100%" y2="100%">
    <stop offset="0%" style="stop-color:#0f0518"/><stop offset="45%" style="stop-color:#2a0a4a"/><stop offset="100%" style="stop-color:#061a2e"/>
  </linearGradient><radialGradient id="hglow" cx="50%" cy="40%" r="50%">
    <stop offset="0%" style="stop-color:rgba(168,85,247,0.45)"/><stop offset="100%" style="stop-color:rgba(168,85,247,0)"/>
  </radialGradient></defs>
  <rect width="1600" height="900" fill="url(#hbg)"/>
  <rect width="1600" height="900" fill="url(#hglow)"/>
  <g fill="#ffffff">
    <circle cx="120" cy="150" r="2" opacity="0.7"/><circle cx="340" cy="90" r="1.5" opacity="0.5"/>
    <circle cx="520" cy="220" r="2" opacity="0.6"/><circle cx="700" cy="120" r="1.5" opacity="0.8"/>
    <circle cx="900" cy="260" r="2" opacity="0.5"/><circle cx="1100" cy="140" r="1.5" opacity="0.7"/>
    <circle cx="1300" cy="90" r="2" opacity="0.6"/><circle cx="1480" cy="200" r="1.5" opacity="0.5"/>
    <circle cx="200" cy="420" r="1.5" opacity="0.4"/><circle cx="1350" cy="420" r="2" opacity="0.4"/>
  </g>
  <polygon points="1200,520 1290,420 1380,520 1290,620" fill="rgba(6,182,212,0.15)" stroke="rgba(6,182,212,0.5)" stroke-width="2"/>
  <polygon points="180,600 260,510 340,600 260,690" fill="rgba(168,85,247,0.15)" stroke="rgba(168,85,247,0.5)" stroke-width="2"/>
  <circle cx="780" cy="700" r="140" fill="none" stroke="rgba(168,85,247,0.3)" stroke-width="3"/>
  <circle cx="780" cy="700" r="100" fill="none" stroke="rgba(168,85,247,0.2)" stroke-width="2"/>
  <text x="800" y="840" font-family="Arial, Helvetica, sans-serif" font-size="24" fill="rgba(255,255,255,0.12)" text-anchor="middle" letter-spacing="8">GAMEVERSE HUB</text>
</svg>